<?xml version="1.0" standalone="no"?>
<!DOCTYPE svg PUBLIC "-//W3C//DTD SVG 20010904//EN"
 "http://www.w3.org/TR/2001/REC-SVG-20010904/DTD/svg10.dtd">
<svg version="1.0" xmlns="http://www.w3.org/2000/svg"
 width="700.000000pt" height="700.000000pt" viewBox="0 0 700.000000 700.000000"
 preserveAspectRatio="xMidYMid meet">
<metadata>
Created by potrace 1.11, written by Peter Selinger 2001-2013
</metadata>
<g transform="translate(0.000000,700.000000) scale(0.100000,-0.100000)"
fill="#000000" stroke="none">
<path d="M3305 6410 c-1120 -82 -2074 -769 -2503 -1802 -120 -288 -190 -595
-212 -935 -29 -421 49 -889 211 -1279 518 -1245 1798 -1974 3126 -1779 1116
164 2048 972 2368 2053 188 637 154 1338 -96 1938 -410 985 -1301 1663 -2349
1788 -160 19 -405 27 -545 16z m595 -219 c289 -44 545 -125 810 -257 734 -365
1266 -1042 1444 -1839 49 -216 60 -333 60 -595 0 -181 -5 -276 -18 -365 -47
-326 -133 -596 -280 -880 -84 -163 -202 -348 -219 -342 -26 8 -50 71 -58 150
-15 153 -95 269 -228 334 -50 25 -67 27 -161 28 -95 0 -111 -3 -161 -28 -139
-68 -213 -181 -229 -349 -5 -52 -19 -121 -30 -152 -30 -78 -104 -157 -188
-198 -63 -31 -73 -33 -172 -33 -93 0 -112 3 -162 27 -72 34 -146 107 -182 179
-21 44 -30 85 -41 181 -21 188 -60 282 -163 391 -30 31 -49 57 -43 57 20 0
168 77 235 122 78 54 200 175 258 258 396 563 175 1338 -459 1608 -224 95
-510 107 -743 32 -157 -52 -305 -144 -426 -264 -219 -219 -326 -498 -311 -810
8 -174 56 -339 140 -481 l35 -59 -57 -29 c-135 -68 -221 -208 -221 -359 0 -61
-32 -158 -70 -214 -39 -56 -83 -91 -155 -126 -146 -68 -315 -38 -431 77 -74
74 -104 145 -115 274 -17 192 -60 293 -179 411 -125 125 -244 170 -449 170
-141 0 -125 -17 -141 155 -35 382 22 809 155 1171 48 131 167 376 240 494 142
229 361 481 570 657 222 186 553 377 820 472 211 75 482 134 715 155 116 10
479 -4 610 -23z m-220 -1835 c94 -20 215 -69 290 -118 93 -60 226 -198 282
-293 26 -44 62 -123 80 -175 32 -93 33 -98 33 -270 0 -172 -1 -177 -33 -270
-48 -138 -111 -239 -217 -345 -106 -106 -207 -169 -346 -216 -81 -28 -112 -33
-225 -37 -78 -3 -159 0 -198 7 -307 54 -575 286 -676 589 -29 84 -34 114 -38
228 -3 78 0 158 7 198 50 288 266 553 536 657 44 17 107 37 140 44 80 18 284
18 365 1z m-2644 -1447 c85 -16 157 -54 215 -116 71 -75 98 -142 109 -273 13
-140 39 -222 101 -314 111 -166 285 -259 484 -259 306 1 555 232 580 540 9
105 19 133 63 176 44 42 78 57 135 57 35 0 51 -7 92 -41 182 -150 389 -230
649 -248 145 -10 189 -23 271 -82 52 -37 107 -114 130 -179 9 -25 20 -92 25
-149 11 -124 37 -208 90 -290 104 -161 262 -255 452 -268 174 -12 329 46 452
171 108 107 155 216 172 391 4 39 15 87 25 107 69 136 277 133 339 -5 10 -23
22 -76 28 -118 11 -90 45 -171 97 -227 l36 -41 -118 -122 c-365 -377 -797
-630 -1288 -754 -267 -68 -476 -90 -755 -82 -209 6 -333 21 -518 63 -913 204
-1668 878 -1972 1761 -22 64 -50 153 -61 197 -11 45 -22 89 -25 99 -5 15 3 17
63 17 38 0 96 -5 129 -11z"/>
<path d="M3986 5915 c-152 -54 -233 -226 -177 -375 28 -74 73 -125 143 -159
196 -99 422 40 422 259 -1 122 -80 236 -191 274 -57 19 -144 20 -197 1z m167
-216 c30 -33 34 -66 12 -108 -43 -85 -175 -50 -175 46 0 46 15 72 53 89 42 18
76 10 110 -27z"/>
<path d="M1945 5332 c-68 -22 -155 -109 -178 -176 -36 -105 -14 -213 59 -295
111 -124 301 -130 419 -13 156 154 90 425 -118 487 -64 19 -119 18 -182 -3z
m158 -202 c49 -39 41 -131 -12 -160 -76 -40 -169 40 -139 119 22 59 101 80
151 41z"/>
<path d="M3114 5332 c-76 -27 -129 -74 -164 -146 -97 -196 39 -420 255 -420
254 -1 389 290 223 479 -80 91 -206 126 -314 87z m160 -208 c40 -41 39 -96 -5
-136 -49 -46 -114 -35 -145 24 -49 95 74 187 150 112z"/>
<path d="M4733 4830 c-70 -35 -105 -72 -139 -145 -54 -116 -15 -267 90 -346
57 -43 104 -59 178 -59 107 0 200 54 255 147 35 60 43 167 19 241 -38 112
-138 184 -266 190 -68 3 -81 0 -137 -28z m195 -193 c12 -13 25 -39 28 -59 5
-30 1 -41 -24 -69 -81 -90 -215 14 -148 115 33 51 100 57 144 13z"/>
<path d="M1269 4264 c-57 -17 -142 -91 -171 -148 -29 -57 -35 -159 -14 -224
23 -69 91 -143 158 -172 77 -34 175 -33 243 2 108 56 164 147 165 264 0 201
-187 338 -381 278z m147 -199 c28 -19 48 -69 40 -101 -10 -39 -53 -74 -91 -74
-37 0 -82 32 -96 68 -12 32 5 87 34 107 27 19 86 19 113 0z"/>
<path d="M5514 4151 c-109 -51 -164 -143 -164 -270 1 -157 125 -281 281 -281
127 0 215 54 270 165 29 59 31 71 27 137 -8 119 -58 197 -160 247 -84 43 -167
43 -254 2z m162 -176 c91 -38 71 -165 -29 -182 -32 -5 -41 -1 -73 31 -32 32
-36 41 -31 73 7 38 30 71 62 84 28 11 31 11 71 -6z"/>
<path d="M1840 3483 c-66 -24 -151 -113 -173 -182 -45 -142 14 -285 144 -350
151 -75 327 -15 401 138 31 65 31 167 -1 239 -29 65 -104 134 -168 156 -58 20
-144 19 -203 -1z m173 -214 c45 -49 34 -114 -25 -145 -65 -34 -138 11 -138 85
1 42 15 65 56 85 37 20 72 11 107 -25z"/>
<path d="M4934 3376 c-61 -28 -116 -82 -146 -145 -33 -68 -31 -178 5 -247 95
-185 337 -221 475 -70 101 111 108 260 17 379 -76 100 -234 137 -351 83z m166
-181 c109 -56 27 -222 -83 -170 -73 34 -78 132 -9 169 35 19 56 20 92 1z"/>
</g>
</svg>
